<svg xmlns="http://www.w3.org/2000/svg" viewBox="0 0 680 211.81"><defs><style>.cls-1{fill:#1d6a83;}.cls-2,.cls-3{fill:none;}.cls-2{stroke:#1d6a83;stroke-miterlimit:10;stroke-width:2px;}.cls-4{fill:#fff;}.cls-5{fill:#514a50;}.cls-6{fill:#136a83;}</style></defs><g id="rocket"><path class="cls-1" d="M300.87,518.7l-8.74-8.07c.28-4.06.5-8.23.61-12.52C294,448.75,281.25,410,255.8,385.92l-6.46.1-.91.84-.08.07c-8.59,8.12-38.07,42.34-31.17,124.41l-8,7.35A40.25,40.25,0,0,0,199.48,564l11.9,29.45a3.48,3.48,0,0,0,3,2.18h.22a3.49,3.49,0,0,0,3-1.79L231.53,569h47l13.87,24.86a3.47,3.47,0,0,0,3,1.79h.22a3.48,3.48,0,0,0,3-2.18l11.88-29.39A40.26,40.26,0,0,0,300.87,518.7Zm-85.75,65.37-9.2-22.75a33.3,33.3,0,0,1,8-37.49l4.08-3.77a397.54,397.54,0,0,0,7.76,44.9ZM276.91,562H232.26c-15.19-67.35-8.39-110.26.07-134.5,7-20,16.17-30.79,20.3-34.94C304.1,443.73,281.3,544.74,276.91,562Zm27.22-.62L295,584.07l-11.29-20.24a304.29,304.29,0,0,0,7.71-44.4l4.76,4.4A33.3,33.3,0,0,1,304.13,561.38Z" transform="translate(-160 -384.28)"/></g><g id="Graphic"><path class="cls-2" d="M169.92,517.36" transform="translate(-160 -384.28)"/><path class="cls-2" d="M216.9,566.7" transform="translate(-160 -384.28)"/><path class="cls-2" d="M219.55,542.05" transform="translate(-160 -384.28)"/><path class="cls-2" d="M167.7,565" transform="translate(-160 -384.28)"/><polygon class="cls-3" points="34.59 95.01 57.92 62.61 57.92 10.35 35.49 36 34.59 95.01"/><polygon class="cls-3" points="57.92 96.77 57.92 66.87 36.73 96.77 57.92 96.77"/><polygon class="cls-3" points="57.92 124.7 57.92 99.53 34.89 99.53 57.92 124.7"/><path class="cls-1" d="M254,450.4v-2.77H220.69V387.27l-27.94,32-1,64-25.44,31.2v74.33h2.76V515.55L193.2,486l25.36,28.81-.05.16h2.18V483.82H254v-2.77H220.69V450.4ZM217.92,509l-23-25.17h23Zm0-27.94H196.73l21.19-29.9Zm0-34.16-23.34,32.4.92-59,22.42-25.65Z" transform="translate(-160 -384.28)"/><circle class="cls-4" cx="58.13" cy="9.1" r="8.12"/><path class="cls-5" d="M218.13,402.48a9.1,9.1,0,1,1,9.09-9.1A9.11,9.11,0,0,1,218.13,402.48Zm0-16.25a7.15,7.15,0,1,0,7.14,7.15A7.16,7.16,0,0,0,218.13,386.23Z" transform="translate(-160 -384.28)"/><circle class="cls-4" cx="33.92" cy="35.36" r="8.12"/><path class="cls-5" d="M193.92,428.74a9.1,9.1,0,1,1,9.09-9.1A9.11,9.11,0,0,1,193.92,428.74Zm0-16.25a7.15,7.15,0,1,0,7.14,7.15A7.16,7.16,0,0,0,193.92,412.49Z" transform="translate(-160 -384.28)"/><circle class="cls-4" cx="59.55" cy="63.95" r="8.12"/><path class="cls-5" d="M219.55,457.33a9.1,9.1,0,1,1,9.09-9.1A9.11,9.11,0,0,1,219.55,457.33Zm0-16.24a7.15,7.15,0,1,0,7.15,7.14A7.15,7.15,0,0,0,219.55,441.09Z" transform="translate(-160 -384.28)"/><circle class="cls-4" cx="33.44" cy="98.93" r="8.12"/><path class="cls-5" d="M193.44,492.31a9.1,9.1,0,1,1,9.09-9.09A9.11,9.11,0,0,1,193.44,492.31Zm0-16.24a7.15,7.15,0,1,0,7.14,7.15A7.16,7.16,0,0,0,193.44,476.07Z" transform="translate(-160 -384.28)"/><circle class="cls-4" cx="60.52" cy="129.97" r="8.12"/><path class="cls-5" d="M220.52,523.35a9.1,9.1,0,1,1,9.1-9.1A9.11,9.11,0,0,1,220.52,523.35Zm0-16.24a7.15,7.15,0,1,0,7.15,7.14A7.14,7.14,0,0,0,220.52,507.11Z" transform="translate(-160 -384.28)"/><circle class="cls-4" cx="130.56" cy="133.07" r="8.12"/><path class="cls-5" d="M290.56,526.45a9.1,9.1,0,1,1,9.09-9.09A9.11,9.11,0,0,1,290.56,526.45Zm0-16.24a7.15,7.15,0,1,0,7.14,7.15A7.16,7.16,0,0,0,290.56,510.21Z" transform="translate(-160 -384.28)"/><circle class="cls-4" cx="9.1" cy="129.97" r="8.12"/><path class="cls-5" d="M169.1,523.35a9.1,9.1,0,1,1,9.09-9.1A9.11,9.11,0,0,1,169.1,523.35Zm0-16.24a7.15,7.15,0,1,0,7.14,7.14A7.15,7.15,0,0,0,169.1,507.11Z" transform="translate(-160 -384.28)"/><circle class="cls-4" cx="9.1" cy="202.71" r="8.12"/><path class="cls-5" d="M169.1,596.09a9.1,9.1,0,1,1,9.09-9.1A9.11,9.11,0,0,1,169.1,596.09Zm0-16.24a7.15,7.15,0,1,0,7.14,7.14A7.15,7.15,0,0,0,169.1,579.85Z" transform="translate(-160 -384.28)"/><circle class="cls-4" cx="68.64" cy="181.82" r="8.12"/><path class="cls-5" d="M228.64,575.2a9.1,9.1,0,1,1,9.1-9.1A9.11,9.11,0,0,1,228.64,575.2Zm0-16.24a7.15,7.15,0,1,0,7.15,7.14A7.15,7.15,0,0,0,228.64,559Z" transform="translate(-160 -384.28)"/><circle class="cls-4" cx="119.51" cy="181.82" r="8.12"/><path class="cls-5" d="M279.51,575.2a9.1,9.1,0,1,1,9.1-9.1A9.11,9.11,0,0,1,279.51,575.2Zm0-16.24a7.15,7.15,0,1,0,7.15,7.14A7.14,7.14,0,0,0,279.51,559Z" transform="translate(-160 -384.28)"/><circle class="cls-4" cx="94.05" cy="63.71" r="12.88"/><path class="cls-5" d="M254.05,461.94A13.95,13.95,0,1,1,268,448,14,14,0,0,1,254.05,461.94Zm0-25.76A11.82,11.82,0,1,0,265.87,448,11.83,11.83,0,0,0,254.05,436.18Z" transform="translate(-160 -384.28)"/><circle class="cls-4" cx="94.05" cy="99.01" r="10.88"/><path class="cls-5" d="M254.05,495.23A11.94,11.94,0,1,1,266,483.29,11.95,11.95,0,0,1,254.05,495.23Zm0-21.76a9.83,9.83,0,1,0,9.82,9.82A9.84,9.84,0,0,0,254.05,473.47Z" transform="translate(-160 -384.28)"/></g><g id="Type"><path class="cls-5" d="M355,434.69a1.82,1.82,0,0,1,2-2h29.76c11.65,0,17.85,6.2,17.85,17.85v30.25c0,11.53-6.2,17.86-17.85,17.86H371.88v31.24a1.77,1.77,0,0,1-2,2H357a1.82,1.82,0,0,1-2-2Zm27.77,47.61c3.35,0,5-1.86,5-5V454c0-3.22-1.61-4.95-5-4.95H371.88V482.3Z" transform="translate(-160 -384.28)"/><path class="cls-5" d="M472.55,445.11c1.86,0,2.73,1.24,2,2.85l-22.69,51.45v30a2.22,2.22,0,0,1-2.48,2.48h-11.9a2.23,2.23,0,0,1-2.48-2.48v-30L412.3,448c-.75-1.61.12-2.85,2-2.85h12.4a2.84,2.84,0,0,1,2.85,2L443.41,479l13.89-31.86a2.82,2.82,0,0,1,2.85-2Z" transform="translate(-160 -384.28)"/><path class="cls-6" d="M527.34,432.71a1.77,1.77,0,0,1,2,2v12.4a1.78,1.78,0,0,1-2,2H513v80.83a1.72,1.72,0,0,1-2,2h-12.9a1.77,1.77,0,0,1-2-2V449.08H481.72a1.83,1.83,0,0,1-2-2v-12.4a1.82,1.82,0,0,1,2-2Z" transform="translate(-160 -384.28)"/><path class="cls-6" d="M588.71,459.49c0,1.24-.5,2.11-2,2.11H556.1v19.09h23.31a1.86,1.86,0,0,1,2,2.11v12.27a1.86,1.86,0,0,1-2,2.11H556.1v18.35h30.62c1.49,0,2,.62,2,2v12.4c0,1.24-.5,2-2,2H541.1a1.79,1.79,0,0,1-1.86-2V447.09a1.79,1.79,0,0,1,1.86-2h45.62c1.49,0,2,.74,2,2Z" transform="translate(-160 -384.28)"/><path class="cls-6" d="M652.06,445.11a1.82,1.82,0,0,1,2,2v82.82a1.82,1.82,0,0,1-2,2h-9.8a2.23,2.23,0,0,1-2.23-1.61l-23.31-47.36v47a1.77,1.77,0,0,1-2,2H603.09a1.83,1.83,0,0,1-2-2V447.09a1.83,1.83,0,0,1,2-2h9.79a2.21,2.21,0,0,1,2.23,1.61l23.31,47.36v-47a1.77,1.77,0,0,1,2-2Z" transform="translate(-160 -384.28)"/><path class="cls-6" d="M698.17,445.11c11.66,0,17.86,6.2,17.86,17.85v8.18a1.78,1.78,0,0,1-2,2H701.52a1.83,1.83,0,0,1-2-2v-5.2c0-3.23-1.61-5-5-5h-6.82c-3.1,0-5,1.73-5,5v10.53l30,9.67a4.46,4.46,0,0,1,3.23,4.59V514c0,11.65-6.2,17.85-17.86,17.85H684.29c-11.53,0-17.85-6.2-17.85-17.85V506a1.77,1.77,0,0,1,2-2h12.52c1.37,0,2,.62,2,2v5.21c0,3.34,1.86,5,5,5h6.7c3.22,0,5-1.62,5-5V498.67L669.78,489a4.43,4.43,0,0,1-3.34-4.59V463c0-11.65,6.32-17.85,17.85-17.85Z" transform="translate(-160 -384.28)"/><path class="cls-6" d="M728.42,463c0-11.65,6.2-17.85,17.86-17.85h13.88c11.65,0,17.85,6.2,17.85,17.85V514c0,11.65-6.2,17.85-17.85,17.85H746.28c-11.66,0-17.86-6.2-17.86-17.85Zm29,52.94c3.23,0,5-1.61,5-5V466.06c0-3.22-1.73-5-5-5H749.5c-3.22,0-5,1.74-5,5v44.88c0,3.35,1.74,5,5,5Z" transform="translate(-160 -384.28)"/><path class="cls-6" d="M840,487.88c0,7.19-2.36,12.27-6.94,15.12l6.44,26.66c.38,1.49-.37,2.23-1.73,2.23H825.62a2,2,0,0,1-2.11-1.73l-6-24.43h-11v24.18a1.83,1.83,0,0,1-2,2H792.39a1.82,1.82,0,0,1-2-2V447.09a1.82,1.82,0,0,1,2-2h29.76c11.65,0,17.85,6.2,17.85,17.85Zm-21.08,1.86c3.23,0,5-1.74,5-5V466.06c0-3.22-1.73-5-5-5H806.53v28.64Z" transform="translate(-160 -384.28)"/></g></svg>