<?xml version="1.0" encoding="UTF-8" standalone="no"?>
<!-- Created with Inkscape (http://www.inkscape.org/) -->

<svg
   xmlns:dc="http://purl.org/dc/elements/1.1/"
   xmlns:cc="http://creativecommons.org/ns#"
   xmlns:rdf="http://www.w3.org/1999/02/22-rdf-syntax-ns#"
   xmlns:svg="http://www.w3.org/2000/svg"
   xmlns="http://www.w3.org/2000/svg"
   xmlns:sodipodi="http://sodipodi.sourceforge.net/DTD/sodipodi-0.dtd"
   xmlns:inkscape="http://www.inkscape.org/namespaces/inkscape"
   width="1200"
   height="350"
   viewBox="0 0 1200 350"
   version="1.1"
   id="svg5"
   inkscape:version="0.92.3 (2405546, 2018-03-11)"
   sodipodi:docname="pytensor_logo.svg"
   xml:space="preserve"><metadata
     id="metadata30"><rdf:RDF><cc:Work
         rdf:about=""><dc:format>image/svg+xml</dc:format><dc:type
           rdf:resource="http://purl.org/dc/dcmitype/StillImage" /></cc:Work></rdf:RDF></metadata><sodipodi:namedview
     id="namedview7"
     pagecolor="#ffffff"
     bordercolor="#666666"
     borderopacity="1.0"
     inkscape:showpageshadow="2"
     inkscape:pageopacity="0.0"
     inkscape:pagecheckerboard="true"
     inkscape:deskcolor="#d1d1d1"
     inkscape:document-units="mm"
     showgrid="false"
     showborder="true"
     inkscape:zoom="1.2938725"
     inkscape:cx="828.35618"
     inkscape:cy="338.60948"
     inkscape:window-width="3840"
     inkscape:window-height="2066"
     inkscape:window-x="-11"
     inkscape:window-y="-11"
     inkscape:window-maximized="1"
     inkscape:current-layer="layer1"><inkscape:grid
       type="xygrid"
       id="grid9"
       spacingx="10"
       spacingy="10"
       dotted="true"
       originx="0"
       originy="0" /></sodipodi:namedview><defs
     id="defs2"><pattern
       id="EMFhbasepattern"
       patternUnits="userSpaceOnUse"
       width="6"
       height="6"
       x="0"
       y="0" /></defs><g
     inkscape:label="Ebene 1"
     inkscape:groupmode="layer"
     id="layer1"><g
       aria-label="pytensor"
       id="text70"
       style="font-size:174.111px;line-height:1.25;stroke-width:4.35278"
       transform="translate(166.13729,-30.891782)"><path
         d="m 283.3673,239.46771 -33.15591,-66.39682 h -2.12537 c -1.70031,0 -2.91886,-0.34006 -3.65566,-1.02018 -0.73679,-0.68012 -1.10519,-1.53027 -1.10519,-2.55045 0,-0.7368 0.17003,-1.38858 0.51009,-1.95535 0.39673,-0.62345 0.87849,-1.04852 1.44526,-1.27523 0.62344,-0.28338 1.55861,-0.42507 2.8055,-0.42507 h 19.55348 c 1.7003,0 2.91885,0.34006 3.65565,1.02018 0.73679,0.68012 1.10519,1.55861 1.10519,2.63547 0,1.02018 -0.3684,1.87033 -1.10519,2.55045 -0.7368,0.68012 -1.95535,1.02018 -3.65565,1.02018 h -9.60671 l 29.16019,58.57543 28.73511,-58.57543 h -9.60671 c -1.7003,0 -2.91885,-0.34006 -3.65565,-1.02018 -0.7368,-0.68012 -1.1052,-1.55861 -1.1052,-2.63547 0,-1.02018 0.3684,-1.87033 1.1052,-2.55045 0.7368,-0.68012 1.95535,-1.02018 3.65565,-1.02018 h 19.46847 c 1.75698,0 3.00387,0.34006 3.74066,1.02018 0.7368,0.68012 1.1052,1.55861 1.1052,2.63547 0,0.73679 -0.22671,1.41691 -0.68012,2.04036 -0.45341,0.62345 -0.9635,1.04852 -1.53027,1.27523 -0.56677,0.17003 -2.15372,0.25504 -4.76085,0.25504 l -45.22805,92.07139 h 11.13698 c 1.7003,0 2.91885,0.31172 3.65565,0.93517 0.7368,0.68012 1.1052,1.55861 1.1052,2.63547 0,1.02018 -0.3684,1.87033 -1.1052,2.55045 -0.7368,0.68012 -1.95535,1.02018 -3.65565,1.02018 H -69.912633 c -1.700307,0 -2.918857,-0.34006 -3.65565,-1.02018 -0.7368,-0.62344 -1.1052,-1.47359 -1.1052,-2.55045 0,-1.07686 0.3684,-1.95535 1.1052,-2.63547 0.736793,-0.62345 1.955343,-0.93517 3.65565,-0.93517 H 270.78506 Z"
         style="font-family:'Courier New';-inkscape-font-specification:'Courier New';fill:#0e688a;fill-opacity:1"
         id="path390"
         sodipodi:nodetypes="ccsssccsssssscccssssssssscccscsssscscscc" /><path
         d="m 530.5063,204.35646 h -72.77295 q 1.87033,13.85747 11.56205,22.35898 9.77674,8.4165 24.1443,8.4165 7.99142,0 16.74798,-2.63547 8.75656,-2.63547 14.28254,-6.97124 1.61529,-1.27523 2.8055,-1.27523 1.36025,0 2.38043,1.1052 1.02018,1.02018 1.02018,2.46544 0,1.44526 -1.36024,2.8055 -4.08073,4.25076 -14.53759,7.99142 -10.37185,3.65565 -21.3388,3.65565 -18.36327,0 -30.69046,-11.98713 -12.24218,-12.07215 -12.24218,-29.16019 0,-15.55777 11.47704,-26.69475 11.56206,-11.13699 28.56509,-11.13699 17.51311,0 28.82013,11.47705 11.30701,11.39202 11.13698,29.58526 z m -7.22629,-7.22628 q -2.12538,-11.81711 -11.22199,-19.21342 -9.01161,-7.39632 -21.50883,-7.39632 -12.49723,0 -21.50883,7.3113 -9.01161,7.3113 -11.222,19.29844 z"
         style="font-family:'Courier New';-inkscape-font-specification:'Courier New';fill:#0e688a;fill-opacity:1"
         id="path394" /><path
         d="m 573.26889,165.84461 v 10.79692 q 7.48134,-7.56635 13.51741,-10.45686 6.03607,-2.89052 13.60242,-2.89052 8.16145,0 14.87765,3.48562 4.76085,2.55046 8.58653,8.50152 3.91069,5.86604 3.91069,12.07215 v 44.973 h 6.03608 q 2.55045,0 3.65565,1.02018 1.1052,0.93517 1.1052,2.55046 0,1.53027 -1.1052,2.55045 -1.1052,1.02018 -3.65565,1.02018 h -19.12841 q -2.63547,0 -3.74066,-1.02018 -1.1052,-1.02018 -1.1052,-2.55045 0,-1.61529 1.1052,-2.55046 1.10519,-1.02018 3.74066,-1.02018 h 5.95106 v -43.78279 q 0,-7.56635 -5.52598,-12.75227 -5.52598,-5.27094 -14.79263,-5.27094 -7.05626,0 -12.24218,2.89051 -5.18593,2.8055 -14.79264,14.11252 v 44.80297 h 8.07644 q 2.55046,0 3.65565,1.02018 1.1052,0.93517 1.1052,2.55046 0,1.53027 -1.1052,2.55045 -1.10519,1.02018 -3.65565,1.02018 h -23.29414 q -2.55046,0 -3.65566,-1.02018 -1.10519,-1.02018 -1.10519,-2.55045 0,-1.61529 1.10519,-2.55046 1.1052,-1.02018 3.65566,-1.02018 h 8.07643 v -59.25555 h -6.03607 q -2.55046,0 -3.65565,-1.02018 -1.1052,-1.02018 -1.1052,-2.63547 0,-1.53027 1.1052,-2.55045 1.10519,-1.02018 3.65565,-1.02018 z"
         style="font-family:'Courier New';-inkscape-font-specification:'Courier New';fill:#0e688a;fill-opacity:1"
         id="path396" /><path
         d="m 724.42578,170.52044 q 0,-2.46544 1.02019,-3.57064 1.02018,-1.10519 2.55045,-1.10519 1.61529,0 2.63547,1.10519 1.02018,1.1052 1.02018,3.74067 v 12.24218 q 0,2.55045 -1.02018,3.65565 -1.02018,1.1052 -2.63547,1.1052 -1.44526,0 -2.46544,-0.93517 -0.93517,-0.93517 -1.1052,-3.06054 -0.51009,-5.10091 -5.27093,-8.4165 -6.97125,-4.76085 -18.44829,-4.76085 -11.98713,0 -18.61831,4.84586 -5.0159,3.65565 -5.0159,8.16145 0,5.10091 5.95106,8.50152 4.08073,2.38042 15.47276,3.65565 14.87765,1.61529 20.65868,3.65565 8.24646,2.97553 12.24217,8.24647 4.08073,5.27094 4.08073,11.39203 0,9.09661 -8.75656,16.23789 -8.75656,7.05625 -25.67457,7.05625 -16.91801,0 -27.71493,-8.58653 0,2.89052 -0.34006,3.74067 -0.34006,0.85015 -1.27523,1.44526 -0.85015,0.5951 -1.95535,0.5951 -1.53027,0 -2.55045,-1.10519 -1.02018,-1.1052 -1.02018,-3.65566 v -14.70761 q 0,-2.55046 0.93516,-3.65565 1.02019,-1.1052 2.63547,-1.1052 1.53028,0 2.55046,1.1052 1.10519,1.02018 1.10519,2.8055 0,3.91069 1.95535,6.54616 2.97553,4.08073 9.43668,6.80121 6.54617,2.63547 15.98285,2.63547 13.94248,0 20.74369,-5.18592 6.80121,-5.18593 6.80121,-10.96695 0,-6.63119 -6.88623,-10.6269 -6.97124,-3.99571 -20.31861,-5.35595 -13.26236,-1.36024 -19.04339,-3.57064 -5.78103,-2.21039 -9.01161,-6.63118 -3.23057,-4.42078 -3.23057,-9.52169 0,-9.18163 9.0116,-14.53759 9.01161,-5.44097 21.50883,-5.44097 14.79263,0 24.05928,7.22629 z"
         style="font-family:'Courier New';-inkscape-font-specification:'Courier New';fill:#0e688a;fill-opacity:1"
         id="path398" /><path
         d="m 845.23233,202.82619 q 0,16.32291 -11.73209,27.88496 -11.64707,11.56206 -28.14001,11.56206 -16.66296,0 -28.31003,-11.56206 -11.64708,-11.64707 -11.64708,-27.88496 0,-16.32291 11.64708,-27.88496 11.64707,-11.64708 28.31003,-11.64708 16.49294,0 28.14001,11.56206 11.73209,11.56206 11.73209,27.96998 z m -7.22628,0 q 0,-13.43239 -9.60671,-22.86907 -9.5217,-9.43668 -23.12412,-9.43668 -13.60242,0 -23.20913,9.52169 -9.5217,9.43668 -9.5217,22.78406 0,13.26236 9.5217,22.78406 9.60671,9.52169 23.20913,9.52169 13.60242,0 23.12412,-9.43668 9.60671,-9.52169 9.60671,-22.86907 z"
         style="font-family:'Courier New';-inkscape-font-specification:'Courier New';fill:#0e688a;fill-opacity:1"
         id="path400" /><path
         d="m 901.25729,165.84461 v 18.02321 q 13.94248,-12.58224 20.82871,-16.15288 6.97124,-3.65565 12.83728,-3.65565 6.37614,0 11.8171,4.33577 5.52599,4.25076 5.52599,6.46115 0,1.61529 -1.1052,2.72049 -1.02018,1.02018 -2.63547,1.02018 -0.85015,0 -1.44526,-0.25505 -0.5951,-0.34006 -2.21039,-1.95535 -2.97553,-2.97553 -5.18592,-4.08072 -2.2104,-1.1052 -4.33577,-1.1052 -4.67584,0 -11.30702,3.74067 -6.54616,3.74066 -22.78405,18.27825 v 39.10696 h 31.62563 q 2.63547,0 3.74066,1.02018 1.1052,0.93517 1.1052,2.55046 0,1.53027 -1.1052,2.55045 -1.10519,1.02018 -3.74066,1.02018 h -56.02498 q -2.55045,0 -3.65565,-0.93516 -1.10519,-1.02019 -1.10519,-2.55046 0,-1.44526 1.02018,-2.38042 1.1052,-1.02018 3.74066,-1.02018 h 17.25808 v -59.5106 h -13.17735 q -2.55045,0 -3.65565,-1.02018 -1.1052,-1.02018 -1.1052,-2.63547 0,-1.53027 1.02019,-2.55045 1.10519,-1.02018 3.74066,-1.02018 z"
         style="font-family:'Courier New';-inkscape-font-specification:'Courier New';fill:#0e688a;fill-opacity:1"
         id="path402" /></g><rect
       style="fill:#26292f;fill-opacity:1;stroke:none;stroke-width:1.06074"
       id="rect1484"
       width="15"
       height="45.242622"
       x="125.98669"
       y="188.76012" /><circle
       style="fill:#26292f;fill-opacity:1;stroke:none;stroke-width:2.41091"
       id="path1822-7"
       cx="133.48671"
       cy="128.27722"
       r="9.5495567" /><circle
       style="fill:#e81224;fill-opacity:1;stroke:none;stroke-width:1.18042"
       id="path1822"
       cx="133.48671"
       cy="128.27722"
       r="4.6756024" /><rect
       style="fill:#26292f;fill-opacity:1;stroke:none;stroke-width:1.06074"
       id="rect1484-4"
       width="15"
       height="45.242622"
       x="222.72398"
       y="188.76012" /><circle
       style="fill:#26292f;fill-opacity:1;stroke:none;stroke-width:2.41091"
       id="path1822-7-7"
       cx="230.224"
       cy="128.27722"
       r="9.5495567" /><circle
       style="fill:#e81224;fill-opacity:1;stroke:none;stroke-width:1.18042"
       id="path1822-0"
       cx="230.224"
       cy="128.27722"
       r="4.6756024" /><g
       id="g1292"
       transform="matrix(1.1804162,0,0,1.1804162,429.09086,-76.809913)"><rect
         style="fill:#fce100;fill-opacity:1;stroke:#000000"
         id="rect745"
         width="109.0276"
         height="53.830666"
         x="-263.96155"
         y="179.66325" /><path
         style="fill:#000000;stroke:none;stroke-width:1px;stroke-linecap:butt;stroke-linejoin:miter;stroke-opacity:1"
         d="m -263.96155,191.38285 11.7196,-11.7196 h 15.35616 c 0,0 -27.07576,27.07576 -27.07576,27.07576 0,0 0,-15.35616 0,-15.35616 z"
         id="path1183" /><path
         style="fill:#000000;stroke:none;stroke-width:1px;stroke-linecap:butt;stroke-linejoin:miter;stroke-opacity:1"
         d="m -154.93394,221.96417 -11.7196,11.7196 h -15.35616 c 0,0 27.07576,-27.07576 27.07576,-27.07576 0,0 0,15.35616 0,15.35616 z"
         id="path1183-5" /><path
         style="fill:#000000;stroke:none;stroke-width:1px;stroke-linecap:butt;stroke-linejoin:miter;stroke-opacity:1"
         d="m -154.93394,190.48348 v -10.82023 h -4.51751 l -53.88952,53.88952 h 15.24583 z"
         id="path1207" /><path
         style="fill:#000000;stroke:none;stroke-width:1px;stroke-linecap:butt;stroke-linejoin:miter;stroke-opacity:1"
         d="m -263.96155,222.73254 v 10.82023 h 4.51751 l 53.88952,-53.88952 h -15.24583 z"
         id="path1207-7" /><path
         style="fill:#000000;stroke:none;stroke-width:1px;stroke-linecap:butt;stroke-linejoin:miter;stroke-opacity:1"
         d="m -243.3103,233.55277 53.88952,-53.88952 h 14.31658 l -53.83066,53.83067 z"
         id="path1209" /></g><path
       inkscape:connector-curvature="0"
       id="path844"
       style="font-style:normal;font-variant:normal;font-weight:normal;font-stretch:normal;font-size:medium;line-height:1.25;font-family:'Courier New';-inkscape-font-specification:'Courier New';letter-spacing:0px;word-spacing:0px;fill:#0e688a;fill-opacity:1;stroke:none;stroke-width:7.22989988"
       d="m 332.34044,167.48172 v 33.55125 h 24.40091 q 2.54177,0 3.6432,1.0167 1.10143,0.93198 1.10143,2.54177 0,1.52505 -1.10143,2.54176 -1.10143,1.0167 -3.6432,1.0167 h -41.09181 q -2.54176,0 -3.64319,-1.0167 -1.10143,-1.01671 -1.10143,-2.54176 0,-1.60979 1.10143,-2.54177 1.10143,-1.0167 3.64319,-1.0167 h 9.57397 v -84.89484 h -9.57397 q -2.54176,0 -3.64319,-0.93198 -1.10143,-1.0167 -1.10143,-2.62648 0,-1.60979 1.10143,-2.54177 1.10143,-1.0167 3.64319,-1.0167 h 41.34599 q 14.65749,0 23.89256,8.64199 9.31979,8.64199 9.31979,20.24937 0,6.86275 -3.05011,12.3699 -2.96539,5.50715 -7.20166,8.64199 -6.3544,4.74462 -13.13244,6.94748 -4.91407,1.60979 -12.20045,1.60979 z m 0,-7.11694 h 22.70641 q 7.87946,0 14.74221,-3.47374 6.94749,-3.55846 10.08232,-8.64199 3.21957,-5.08352 3.21957,-10.33649 0,-8.38782 -7.20166,-15.08112 -7.20166,-6.69331 -18.21596,-6.69331 h -25.33289 z" /><path
       inkscape:connector-curvature="0"
       id="path848"
       style="font-style:normal;font-variant:normal;font-weight:normal;font-stretch:normal;font-size:medium;line-height:1.25;font-family:'Courier New';-inkscape-font-specification:'Courier New';letter-spacing:0px;word-spacing:0px;fill:#0e688a;fill-opacity:1;stroke:none;stroke-width:7.22989988"
       d="m 559.40448,116.13813 v 84.89484 h 18.47014 q 2.54176,0 3.64319,1.0167 1.10143,0.93198 1.10143,2.54177 0,1.52505 -1.10143,2.54176 -1.10143,1.0167 -3.64319,1.0167 h -44.14193 q -2.54176,0 -3.64319,-1.0167 -1.10143,-1.01671 -1.10143,-2.54176 0,-1.60979 1.10143,-2.54177 1.10143,-1.0167 3.64319,-1.0167 h 18.47014 v -84.89484 h -29.14554 v 24.65509 q 0,2.62649 -1.0167,3.72792 -0.93198,1.10143 -2.54176,1.10143 -1.52506,0 -2.54176,-1.10143 -1.01671,-1.10143 -1.01671,-3.72792 V 109.0212 h 79.72659 v 31.77202 q 0,2.62649 -1.0167,3.72792 -0.93198,1.10143 -2.54177,1.10143 -1.60978,0 -2.62648,-1.10143 -0.93198,-1.10143 -0.93198,-3.72792 v -24.65509 z" /></g></svg>